HIERARCHY
ROOT Hips
{
	OFFSET 0.000000 0.000000 0.000000
	CHANNELS 6 Xposition Yposition Zposition Xrotation Yrotation Zrotation
	JOINT LeftUpLeg_virtual
	{
		OFFSET 0.000000 0.000000 0.000000
		CHANNELS 3 Xrotation Yrotation Zrotation
		JOINT LeftUpLeg
		{
			OFFSET 15.427100 -6.655098 0.678600
			CHANNELS 3 Xrotation Yrotation Zrotation
			JOINT LeftLeg
			{
				OFFSET 4.081073 -39.591068 13.024000
				CHANNELS 3 Xrotation Yrotation Zrotation
				JOINT LeftFoot
				{
					OFFSET -4.081074 -37.707932 -15.979700
					CHANNELS 3 Xrotation Yrotation Zrotation
					JOINT LeftToeBase
					{
						OFFSET 5.346399 -15.068900 20.645000
						CHANNELS 3 Xrotation Yrotation Zrotation
						JOINT LeftToe_End
						{
							OFFSET 2.754700 0.931300 11.300900
							CHANNELS 3 Xrotation Yrotation Zrotation
							End Site
							{
								OFFSET 0 0 0
							}
						}
					}
				}
			}
		}
	}
	JOINT RightUpLeg_virtual
	{
		OFFSET 0.000000 0.000000 0.000000
		CHANNELS 3 Xrotation Yrotation Zrotation
		JOINT RightUpLeg
		{
			OFFSET -15.569500 -6.655098 0.678600
			CHANNELS 3 Xrotation Yrotation Zrotation
			JOINT RightLeg
			{
				OFFSET -4.081825 -39.591045 13.023800
				CHANNELS 3 Xrotation Yrotation Zrotation
				JOINT RightFoot
				{
					OFFSET 4.081824 -37.707954 -15.979600
					CHANNELS 3 Xrotation Yrotation Zrotation
					JOINT RightToeBase
					{
						OFFSET -5.346400 -15.068900 20.645000
						CHANNELS 3 Xrotation Yrotation Zrotation
						JOINT RightToe_End
						{
							OFFSET -2.754700 0.931300 11.300900
							CHANNELS 3 Xrotation Yrotation Zrotation
							End Site
							{
								OFFSET 0 0 0
							}
						}
					}
				}
			}
		}
	}
	JOINT Spine_virtual
	{
		OFFSET 0.000000 0.000000 0.000000
		CHANNELS 3 Xrotation Yrotation Zrotation
		JOINT Spine
		{
			OFFSET -0.279200 12.230698 -2.892100
			CHANNELS 3 Xrotation Yrotation Zrotation
			JOINT Spine1
			{
				OFFSET -0.232667 10.192268 -1.242267
				CHANNELS 3 Xrotation Yrotation Zrotation
				JOINT Spine1_split
				{
					OFFSET -0.232667 10.192268 -1.242267
					CHANNELS 3 Xrotation Yrotation Zrotation
					JOINT Spine2
					{
						OFFSET -0.232667 10.192268 -1.242267
						CHANNELS 3 Xrotation Yrotation Zrotation
						JOINT Neck_virtual
						{
							OFFSET 0.000000 0.000000 0.000000
							CHANNELS 3 Xrotation Yrotation Zrotation
							JOINT Neck
							{
								OFFSET -0.418800 17.814194 8.416900
								CHANNELS 3 Xrotation Yrotation Zrotation
								JOINT Head
								{
									OFFSET 0.000000 7.031097 3.806800
									CHANNELS 3 Xrotation Yrotation Zrotation
									JOINT HeadTop_End
									{
										OFFSET 0.000000 24.646606 12.978600
										CHANNELS 3 Xrotation Yrotation Zrotation
										End Site
										{
											OFFSET 0 0 0
										}
									}
								}
							}
						}
						JOINT LeftShoulder_virtual
						{
							OFFSET 0.000000 0.000000 0.000000
							CHANNELS 3 Xrotation Yrotation Zrotation
							JOINT LeftShoulder
							{
								OFFSET 8.476499 7.247704 -3.868750
								CHANNELS 3 Xrotation Yrotation Zrotation
								JOINT LeftShoulder_split
								{
									OFFSET 8.476499 7.247704 -3.868750
									CHANNELS 3 Xrotation Yrotation Zrotation
									JOINT LeftArm
									{
										OFFSET 9.308998 -2.777710 0.208600
										CHANNELS 3 Xrotation Yrotation Zrotation
										JOINT LeftForeArm
										{
											OFFSET 29.972298 0.000000 0.000000
											CHANNELS 3 Xrotation Yrotation Zrotation
											JOINT LeftHand
											{
												OFFSET 26.026505 0.000000 0.000000
												CHANNELS 3 Xrotation Yrotation Zrotation
												End Site
												{
													OFFSET 0 0 0
												}
											}
										}
									}
								}
							}
						}
						JOINT RightShoulder_virtual
						{
							OFFSET 0.000000 0.000000 0.000000
							CHANNELS 3 Xrotation Yrotation Zrotation
							JOINT RightShoulder
							{
								OFFSET -7.570500 7.247704 -3.868750
								CHANNELS 3 Xrotation Yrotation Zrotation
								JOINT RightShoulder_split
								{
									OFFSET -7.570500 7.247704 -3.868750
									CHANNELS 3 Xrotation Yrotation Zrotation
									JOINT RightArm
									{
										OFFSET -9.308998 -2.777710 0.208500
										CHANNELS 3 Xrotation Yrotation Zrotation
										JOINT RightForeArm
										{
											OFFSET -29.972300 0.000000 0.000000
											CHANNELS 3 Xrotation Yrotation Zrotation
											JOINT RightHand
											{
												OFFSET -26.026505 0.000000 0.000000
												CHANNELS 3 Xrotation Yrotation Zrotation
												End Site
												{
													OFFSET 0 0 0
												}
											}
										}
									}
								}
							}
						}
					}
				}
			}
		}
	}
}
MOTION
Frames: 6
Frame Time: 0.03333333
0.580150 104.456345 -4.187889 0.000000 0.000000 0.000000 -87.517707 -6.193492 -3.243230 6.237221 25.224263 16.616839 -4.304173 5.680566 5.010206 25.492013 30.553769 -29.906106 -7.785786 -0.280132 2.399859 0.000000 0.000000 0.000000 -90.101322 -2.361768 -0.579731 10.729402 -21.233521 -13.764620 -3.990080 -1.248917 -7.963528 37.428043 -33.144968 34.611697 -15.658986 1.184341 -0.665593 0.000000 0.000000 0.000000 -88.327153 -7.650234 -5.341164 1.854490 -1.385508 1.306404 -2.746871 -1.292059 0.506857 1.173483 2.541514 -0.265522 0.000000 0.000000 0.000000 -2.626200 -1.722846 0.330513 -11.475366 -2.232351 -1.286949 14.526701 0.003587 2.964598 0.000000 0.000000 0.000000 -0.587287 -1.654908 0.651639 0.720615 1.173329 -6.053959 -1.374710 0.998397 -2.551893 38.125047 -28.549515 -54.576155 -160.096820 -88.063869 -159.275422 0.000000 0.000000 0.000000 -0.390855 -1.162051 0.257473 0.600941 -2.347926 13.813122 2.383065 4.810944 -0.734845 28.005403 24.441736 47.936955 179.050909 78.926333 179.837173 0.000000 0.000000 0.000000 
0.423955 104.596115 -3.709946 0.000000 0.000000 0.000000 -87.398848 -5.966320 -3.117046 5.875016 25.282826 16.828401 -4.328585 5.707172 4.933993 25.655939 30.246543 -30.187691 -7.737324 -0.275033 2.387600 0.000000 0.000000 0.000000 -89.657407 -2.175732 -0.525959 10.853845 -20.747171 -13.797979 -4.027774 -1.325414 -7.937363 37.879608 -33.207161 34.756101 -15.599117 1.178814 -0.628031 0.000000 0.000000 0.000000 -88.102713 -7.652793 -5.474397 1.633282 -1.480838 1.303555 -2.827488 -1.337564 0.418640 0.999048 2.177107 -0.378442 0.000000 0.000000 0.000000 -2.745077 -1.744535 0.256263 -11.501245 -2.123741 -1.287596 14.674860 -0.156505 2.794010 0.000000 0.000000 0.000000 -0.593687 -1.694861 0.575607 0.764716 0.614512 -5.775724 -0.886847 0.818419 -2.264491 37.981302 -28.761346 -54.584799 -149.452940 -88.279894 -148.547066 0.000000 0.000000 0.000000 -0.438638 -1.179633 0.169444 0.632581 -2.737178 13.757652 2.314177 4.730709 0.194474 26.957580 25.196430 49.127088 -179.525730 79.736680 178.332783 0.000000 0.000000 0.000000 
0.388521 104.781433 -3.383209 0.000000 0.000000 0.000000 -87.146438 -6.049760 -3.182401 5.627040 25.078274 17.028760 -4.249611 5.761057 4.896604 25.719352 29.961557 -30.161292 -7.631325 -0.245365 2.318668 0.000000 0.000000 0.000000 -89.102522 -2.167518 -0.560301 10.651015 -20.403158 -13.760903 -4.069086 -1.398722 -7.899661 38.632547 -33.099394 35.095271 -15.882891 1.219737 -0.682677 0.000000 0.000000 0.000000 -87.756169 -7.741974 -5.604942 1.437152 -1.581348 1.356150 -2.957116 -1.395926 0.247433 0.759742 1.836167 -0.428758 0.000000 0.000000 0.000000 -2.812942 -1.806528 0.132422 -11.570972 -2.103844 -1.156269 14.736420 -0.455494 2.784499 0.000000 0.000000 0.000000 -0.709738 -1.732046 0.427816 0.838043 -0.278673 -5.229703 -0.669070 1.302125 -2.434078 38.601944 -29.369868 -53.656672 -146.424188 -88.504717 -145.494900 0.000000 0.000000 0.000000 -0.530540 -1.219120 0.028588 0.680296 -3.395354 13.657381 2.266536 4.518962 0.628379 23.815420 25.597466 52.385488 -178.556308 81.161266 177.264200 0.000000 0.000000 0.000000 
0.463464 104.915268 -3.200512 0.000000 0.000000 0.000000 -86.819573 -6.442549 -3.414221 5.507523 24.578922 17.103748 -4.045818 5.796280 4.957128 25.632290 29.802748 -29.820124 -7.487154 -0.196386 2.189633 0.000000 0.000000 0.000000 -88.593332 -2.347339 -0.628748 10.102922 -20.254494 -13.719343 -4.108475 -1.483933 -7.894387 39.335623 -32.956776 35.400024 -16.256955 1.291577 -0.794138 0.000000 0.000000 0.000000 -87.370824 -7.917464 -5.681395 1.304153 -1.670655 1.415727 -3.100223 -1.432760 0.041518 0.475117 1.664488 -0.409074 0.000000 0.000000 0.000000 -2.813173 -1.872538 -0.011125 -11.622779 -2.152914 -0.993182 14.763148 -0.826796 2.855311 0.000000 0.000000 0.000000 -0.929666 -1.748182 0.249226 0.929901 -1.324428 -4.621416 -0.716454 2.293566 -3.036563 39.719613 -30.089596 -52.066754 -150.808760 -88.769168 -149.896315 0.000000 0.000000 0.000000 -0.671109 -1.252292 -0.122874 0.763947 -4.179125 13.589085 2.324734 4.307593 0.472090 18.971189 25.180872 57.073078 -177.999443 83.249269 176.617012 0.000000 0.000000 0.000000 
0.649095 104.967636 -3.093559 0.000000 0.000000 0.000000 -86.472005 -7.013934 -3.650644 5.525264 23.839310 16.960808 -3.765995 5.757710 5.119170 25.478516 29.732657 -29.315032 -7.401166 -0.137323 2.042596 0.000000 0.000000 0.000000 -88.165550 -2.687201 -0.666118 9.273754 -20.227778 -13.786322 -4.092321 -1.608763 -7.952419 39.594692 -33.030433 35.389058 -16.238087 1.365332 -0.908438 0.000000 0.000000 0.000000 -86.988729 -8.126097 -5.641270 1.268064 -1.750316 1.408841 -3.203578 -1.408179 -0.132477 0.317283 1.531982 -0.434905 0.000000 0.000000 0.000000 -2.753453 -1.914380 -0.126003 -11.567900 -2.218438 -0.933683 14.892083 -1.147062 2.877635 0.000000 0.000000 0.000000 -1.196285 -1.731235 0.102101 1.014541 -2.318638 -4.214972 -0.967447 3.310202 -3.608443 40.948241 -30.633829 -50.197833 -163.174121 -88.960523 -162.317014 0.000000 0.000000 0.000000 -0.834864 -1.268198 -0.233017 0.870976 -4.888506 13.660340 2.254019 4.398061 0.022604 13.321196 23.801674 62.087840 -178.204485 85.951264 176.754313 0.000000 0.000000 0.000000 
0.886888 104.945267 -3.116188 0.000000 0.000000 0.000000 -86.108632 -7.605025 -3.728063 5.539537 22.978754 16.645260 -3.447377 5.631517 5.360962 25.406530 29.666165 -28.814512 -7.497556 -0.075091 1.941277 0.000000 0.000000 0.000000 -87.854428 -3.107919 -0.597623 8.258659 -20.217754 -14.058683 -3.968938 -1.788824 -8.076696 39.308582 -33.375706 35.035288 -15.704015 1.412277 -0.978993 0.000000 0.000000 0.000000 -86.622529 -8.306390 -5.441383 1.345688 -1.835243 1.283109 -3.205361 -1.317732 -0.225092 0.444962 1.335994 -0.378146 0.000000 0.000000 0.000000 -2.611754 -1.907629 -0.183241 -11.368152 -2.209871 -1.092269 15.339756 -1.424895 2.774108 0.000000 0.000000 0.000000 -1.413951 -1.685373 0.020714 1.053218 -3.077956 -4.267060 -1.320427 4.173513 -3.893015 41.907971 -30.755259 -48.403385 -177.225104 -89.104749 -176.446462 0.000000 0.000000 0.000000 -0.977734 -1.236241 -0.274381 0.999483 -5.339487 13.983328 2.164879 4.917578 -0.548487 7.976778 21.929953 66.154719 177.947287 88.601979 -179.423482 0.000000 0.000000 0.000000 
